# xmcd
#
# Track frame offsets:
#   150
#   9206
#   24794
#   37331
#   50922
#   61651
#   74324
#   81734
#   92841
#   105676
#   119267
#   133047
#   143533
#   157124
#   168123
#   178070
#   189248
#   202865
#   215861
#   227752
#   243395
#   252774
#
# Disc length: 3521 seconds
#
# Revision: 0
# Processed by: cddbd v1.5.1PL0 Copyright (c) Steve Scherf et al.
# Submitted via: uFREEDB ActiveX Control 1.5
#
DISCID=320dbf16
DTITLE=José Roberto - 1
DYEAR=1900
DGENRE=Country
TTITLE0=Musica 01
TTITLE1=Musica 02
TTITLE2=Musica 03
TTITLE3=Musica 04
TTITLE4=Musica 05
TTITLE5=Musica 06
TTITLE6=Musica 07
TTITLE7=Musica 08
TTITLE8=Musica 09
TTITLE9=Musica 10
TTITLE10=Musica 11
TTITLE11=Musica 12
TTITLE12=Musica 13
TTITLE13=Musica 14
TTITLE14=Musica 15
TTITLE15=Musica 16
TTITLE16=Musica 17
TTITLE17=Musica 18
TTITLE18=Musica 19
TTITLE19=Musica 20
TTITLE20=Musica 21
TTITLE21=Musica 22
EXTD=
EXTT0=
EXTT1=
EXTT2=
EXTT3=
EXTT4=
EXTT5=
EXTT6=
EXTT7=
EXTT8=
EXTT9=
EXTT10=
EXTT11=
EXTT12=
EXTT13=
EXTT14=
EXTT15=
EXTT16=
EXTT17=
EXTT18=
EXTT19=
EXTT20=
EXTT21=
PLAYORDER=
